ffmpeg version 5.1.1-ok2 Copyright (c) 2000-2022 the FFmpeg developers
  built with gcc 9 (Ubuntu 9.3.0-ok4)
  configuration: --prefix=/usr --extra-version=ok2 --toolchain=hardened --libdir=/usr/lib/riscv64-linux-gnu --incdir=/usr/include/riscv64-linux-gnu --arch=riscv64 --enable-gpl --disable-stripping --enable-gnutls --enable-ladspa --enable-libaom --enable-libass --enable-libbluray --enable-libbs2b --enable-libcaca --enable-libcdio --enable-libcodec2 --enable-libdav1d --enable-libflite --enable-libfontconfig --enable-libfreetype --enable-libfribidi --enable-libglslang --enable-libgme --enable-libgsm --enable-libjack --enable-libmp3lame --enable-libmysofa --enable-libopenjpeg --enable-libopenmpt --enable-libopus --enable-libpulse --enable-librabbitmq --enable-librist --enable-librubberband --enable-libshine --enable-libsnappy --enable-libsoxr --enable-libspeex --enable-libsrt --enable-libssh --enable-libsvtav1 --enable-libtheora --enable-libtwolame --enable-libvidstab --enable-libvorbis --enable-libvpx --enable-libwebp --enable-libx265 --enable-libxml2 --enable-libxvid --enable-libzimg --enable-libzmq --enable-libzvbi --enable-lv2 --enable-omx --enable-openal --enable-opencl --enable-opengl --enable-sdl2 --disable-sndio --enable-pocketsphinx --enable-librsvg --enable-libdc1394 --enable-libdrm --enable-libiec61883 --enable-chromaprint --enable-frei0r --enable-libx264 --disable-libplacebo --enable-shared
  libavutil      57. 28.100 / 57. 28.100
  libavcodec     59. 37.100 / 59. 37.100
  libavformat    59. 27.100 / 59. 27.100
  libavdevice    59.  7.100 / 59.  7.100
  libavfilter     8. 44.100 /  8. 44.100
  libswscale      6.  7.100 /  6.  7.100
  libswresample   4.  7.100 /  4.  7.100
  libpostproc    56.  6.100 / 56.  6.100
Stream mapping:
  testsrc:default -> Stream #0:0 (wrapped_avframe)
Press [q] to stop, [?] for help
Output #0, yuv4mpegpipe, to 'in.y4m':
  Metadata:
    encoder         : Lavf59.27.100
  Stream #0:0: Video: wrapped_avframe, yuv420p(tv, progressive), 320x240 [SAR 1:1 DAR 4:3], q=2-31, 200 kb/s, 25 fps, 25 tbn
    Metadata:
      encoder         : Lavc59.37.100 wrapped_avframe
frame=    1 fps=0.0 q=-0.0 size=     113kB time=00:00:00.04 bitrate=23056.8kbits/s speed=2e+04x    frame=   91 fps=0.0 q=-0.0 size=    9984kB time=00:00:03.64 bitrate=22469.5kbits/s speed=7.28x    frame=  250 fps=0.0 q=-0.0 Lsize=   28127kB time=00:00:10.00 bitrate=23041.3kbits/s speed=10.4x    
video:115kB audio:0kB subtitle:0kB other streams:0kB global headers:0kB muxing overhead: 24308.117188%
Pass 1/2 frame    1/0          0B       0 us 0.00 fpm [ETA  unknown] [KPass 1/2 frame    2/1        208B   40792 us 49.03 fps [ETA  0:00:10] [KPass 1/2 frame    3/2        416B   49060 us 61.15 fps [ETA  0:00:09] [KPass 1/2 frame    4/3        624B   59124 us 67.65 fps [ETA  0:00:08] [KPass 1/2 frame    5/4        832B   68585 us 72.90 fps [ETA  0:00:07] [KPass 1/2 frame    6/5       1040B   77974 us 76.95 fps [ETA  0:00:06] [KPass 1/2 frame    7/6       1248B   87374 us 80.12 fps [ETA  0:00:05] [KPass 1/2 frame    8/7       1456B   96692 us 82.74 fps [ETA  0:00:05] [KPass 1/2 frame    9/8       1664B  106099 us 84.83 fps [ETA  0:00:04] [KPass 1/2 frame   10/9       1872B  115428 us 86.63 fps [ETA  0:00:04] [KPass 1/2 frame   11/10      2080B  124883 us 88.08 fps [ETA  0:00:04] [KPass 1/2 frame   12/11      2288B  134258 us 89.38 fps [ETA  0:00:04] [KPass 1/2 frame   13/12      2496B  143672 us 90.48 fps [ETA  0:00:03] [KPass 1/2 frame   14/13      2704B  153089 us 91.45 fps [ETA  0:00:03] [KPass 1/2 frame   15/14      2912B  162558 us 92.27 fps [ETA  0:00:03] [KPass 1/2 frame   16/15      3120B  171873 us 93.09 fps [ETA  0:00:03] [KPass 1/2 frame   17/16      3328B  181249 us 93.79 fps [ETA  0:00:03] [KPass 1/2 frame   18/17      3536B  190519 us 94.48 fps [ETA  0:00:03] [KPass 1/2 frame   19/18      3744B  199780 us 95.10 fps [ETA  0:00:03] [KPass 1/2 frame   20/19      3952B  209016 us 95.69 fps [ETA  0:00:02] [KPass 1/2 frame   21/20      4160B  218298 us 96.20 fps [ETA  0:00:02] [KPass 1/2 frame   22/21      4368B  227525 us 96.69 fps [ETA  0:00:02] [KPass 1/2 frame   23/22      4576B  236860 us 97.10 fps [ETA  0:00:02] [KPass 1/2 frame   24/23      4784B  246134 us 97.51 fps [ETA  0:00:02] [KPass 1/2 frame   25/24      4992B  255388 us 97.89 fps [ETA  0:00:02] [KPass 1/2 frame   26/25      5200B  264714 us 98.22 fps [ETA  0:00:02] [KPass 1/2 frame   27/26      5408B  275096 us 98.15 fps [ETA  0:00:02] [KPass 1/2 frame   28/27      5616B  284359 us 98.47 fps [ETA  0:00:02] [KPass 1/2 frame   29/28      5824B  293582 us 98.78 fps [ETA  0:00:02] [KPass 1/2 frame   30/29      6032B  303016 us 99.00 fps [ETA  0:00:02] [KPass 1/2 frame   31/30      6240B  312392 us 99.23 fps [ETA  0:00:02] [KPass 1/2 frame   32/31      6448B  321824 us 99.43 fps [ETA  0:00:02] [KPass 1/2 frame   33/32      6656B  331178 us 99.64 fps [ETA  0:00:02] [KPass 1/2 frame   34/33      6864B  340512 us 99.85 fps [ETA  0:00:02] [KPass 1/2 frame   35/34      7072B  349902 us 100.03 fps [ETA  0:00:02] [KPass 1/2 frame   36/35      7280B  359347 us 100.18 fps [ETA  0:00:02] [KPass 1/2 frame   37/36      7488B  368721 us 100.35 fps [ETA  0:00:02] [KPass 1/2 frame   38/37      7696B  378180 us 100.48 fps [ETA  0:00:02] [KPass 1/2 frame   39/38      7904B  387595 us 100.62 fps [ETA  0:00:02] [KPass 1/2 frame   40/39      8112B  397171 us 100.71 fps [ETA  0:00:02] [KPass 1/2 frame   41/40      8320B  406684 us 100.82 fps [ETA  0:00:02] [KPass 1/2 frame   42/41      8528B  416142 us 100.93 fps [ETA  0:00:02] [KPass 1/2 frame   43/42      8736B  425585 us 101.04 fps [ETA  0:00:02] [KPass 1/2 frame   44/43      8944B  435093 us 101.13 fps [ETA  0:00:02] [KPass 1/2 frame   45/44      9152B  444447 us 101.25 fps [ETA  0:00:02] [KPass 1/2 frame   46/45      9360B  453901 us 101.34 fps [ETA  0:00:02] [KPass 1/2 frame   47/46      9568B  463404 us 101.42 fps [ETA  0:00:02] [KPass 1/2 frame   48/47      9776B  472893 us 101.50 fps [ETA  0:00:02] [KPass 1/2 frame   49/48      9984B  482215 us 101.61 fps [ETA  0:00:02] [KPass 1/2 frame   50/49     10192B  491498 us 101.73 fps [ETA  0:00:02] [KPass 1/2 frame   51/50     10400B  501031 us 101.79 fps [ETA  0:00:02] [KPass 1/2 frame   52/51     10608B  511163 us 101.73 fps [ETA  0:00:02] [KPass 1/2 frame   53/52     10816B  520526 us 101.82 fps [ETA  0:00:02] [KPass 1/2 frame   54/53     11024B  529944 us 101.90 fps [ETA  0:00:01] [KPass 1/2 frame   55/54     11232B  539204 us 102.00 fps [ETA  0:00:01] [KPass 1/2 frame   56/55     11440B  548484 us 102.10 fps [ETA  0:00:01] [KPass 1/2 frame   57/56     11648B  557884 us 102.17 fps [ETA  0:00:01] [KPass 1/2 frame   58/57     11856B  567075 us 102.28 fps [ETA  0:00:01] [KPass 1/2 frame   59/58     12064B  576365 us 102.37 fps [ETA  0:00:01] [KPass 1/2 frame   60/59     12272B  585747 us 102.43 fps [ETA  0:00:01] [KPass 1/2 frame   61/60     12480B  595034 us 102.52 fps [ETA  0:00:01] [KPass 1/2 frame   62/61     12688B  604324 us 102.59 fps [ETA  0:00:01] [KPass 1/2 frame   63/62     12896B  613677 us 102.66 fps [ETA  0:00:01] [KPass 1/2 frame   64/63     13104B  623037 us 102.72 fps [ETA  0:00:01] [KPass 1/2 frame   65/64     13312B  632462 us 102.77 fps [ETA  0:00:01] [KPass 1/2 frame   66/65     13520B  641782 us 102.84 fps [ETA  0:00:01] [KPass 1/2 frame   67/66     13728B  651208 us 102.89 fps [ETA  0:00:01] [KPass 1/2 frame   68/67     13936B  660637 us 102.93 fps [ETA  0:00:01] [KPass 1/2 frame   69/68     14144B  670315 us 102.94 fps [ETA  0:00:01] [KPass 1/2 frame   70/69     14352B  679940 us 102.95 fps [ETA  0:00:01] [KPass 1/2 frame   71/70     14560B  689440 us 102.98 fps [ETA  0:00:01] [KPass 1/2 frame   72/71     14768B  698946 us 103.01 fps [ETA  0:00:01] [KPass 1/2 frame   73/72     14976B  708468 us 103.04 fps [ETA  0:00:01] [KPass 1/2 frame   74/73     15184B  717950 us 103.07 fps [ETA  0:00:01] [KPass 1/2 frame   75/74     15392B  728000 us 103.02 fps [ETA  0:00:01] [KPass 1/2 frame   76/75     15600B  737638 us 103.03 fps [ETA  0:00:01] [KPass 1/2 frame   77/76     15808B  747563 us 103.00 fps [ETA  0:00:01] [KPass 1/2 frame   78/77     16016B  757049 us 103.03 fps [ETA  0:00:01] [KPass 1/2 frame   79/78     16224B  766534 us 103.06 fps [ETA  0:00:01] [KPass 1/2 frame   80/79     16432B  775985 us 103.09 fps [ETA  0:00:01] [KPass 1/2 frame   81/80     16640B  785426 us 103.13 fps [ETA  0:00:01] [KPass 1/2 frame   82/81     16848B  795004 us 103.14 fps [ETA  0:00:01] [KPass 1/2 frame   83/82     17056B  804435 us 103.18 fps [ETA  0:00:01] [KPass 1/2 frame   84/83     17264B  813933 us 103.20 fps [ETA  0:00:01] [KPass 1/2 frame   85/84     17472B  823341 us 103.24 fps [ETA  0:00:01] [KPass 1/2 frame   86/85     17680B  832864 us 103.26 fps [ETA  0:00:01] [KPass 1/2 frame   87/86     17888B  842148 us 103.31 fps [ETA  0:00:01] [KPass 1/2 frame   88/87     18096B  851502 us 103.35 fps [ETA  0:00:01] [KPass 1/2 frame   89/88     18304B  860826 us 103.39 fps [ETA  0:00:01] [KPass 1/2 frame   90/89     18512B  870276 us 103.42 fps [ETA  0:00:01] [KPass 1/2 frame   91/90     18720B  879626 us 103.45 fps [ETA  0:00:01] [KPass 1/2 frame   92/91     18928B  888988 us 103.49 fps [ETA  0:00:01] [KPass 1/2 frame   93/92     19136B  898439 us 103.51 fps [ETA  0:00:01] [KPass 1/2 frame   94/93     19344B  907792 us 103.55 fps [ETA  0:00:01] [KPass 1/2 frame   95/94     19552B  917043 us 103.59 fps [ETA  0:00:01] [KPass 1/2 frame   96/95     19760B  926375 us 103.63 fps [ETA  0:00:01] [KPass 1/2 frame   97/96     19968B  935701 us 103.67 fps [ETA  0:00:01] [KPass 1/2 frame   98/97     20176B  945077 us 103.70 fps [ETA  0:00:01] [KPass 1/2 frame   99/98     20384B  954473 us 103.72 fps [ETA  0:00:01] [KPass 1/2 frame  100/99     20592B  963807 us 103.76 fps [ETA  0:00:01] [KPass 1/2 frame  101/100    20800B  973087 us 103.79 fps [ETA  0:00:01] [KPass 1/2 frame  102/101    21008B  983431 us 103.72 fps [ETA  0:00:01] [KPass 1/2 frame  103/102    21216B  992759 us 103.75 fps [ETA  0:00:01] [KPass 1/2 frame  104/103    21424B 1002106 us 103.78 fps [ETA  0:00:01] [KPass 1/2 frame  105/104    21632B 1011496 us 103.81 fps [ETA  0:00:01] [KPass 1/2 frame  106/105    21840B 1020954 us 103.82 fps [ETA  0:00:01] [KPass 1/2 frame  107/106    22048B 1030543 us 103.83 fps [ETA  0:00:01] [KPass 1/2 frame  108/107    22256B 1040146 us 103.83 fps [ETA  0:00:01] [KPass 1/2 frame  109/108    22464B 1049808 us 103.83 fps [ETA  0:00:01] [KPass 1/2 frame  110/109    22672B 1059383 us 103.83 fps [ETA  0:00:01] [KPass 1/2 frame  111/110    22880B 1068916 us 103.84 fps [ETA  0:00:01] [KPass 1/2 frame  112/111    23088B 1078295 us 103.87 fps [ETA  0:00:01] [KPass 1/2 frame  113/112    23296B 1087742 us 103.88 fps [ETA  0:00:01] [KPass 1/2 frame  114/113    23504B 1097236 us 103.90 fps [ETA  0:00:01] [KPass 1/2 frame  115/114    23712B 1106866 us 103.90 fps [ETA  0:00:01] [KPass 1/2 frame  116/115    23920B 1116398 us 103.91 fps [ETA  0:00:01] [KPass 1/2 frame  117/116    24128B 1125745 us 103.93 fps [ETA  0:00:01] [KPass 1/2 frame  118/117    24336B 1135104 us 103.96 fps [ETA  0:00:01] [KPass 1/2 frame  119/118    24544B 1144593 us 103.97 fps [ETA  0:00:01] [KPass 1/2 frame  120/119    24752B 1153955 us 103.99 fps [ETA  0:00:01] [KPass 1/2 frame  121/120    24960B 1163477 us 104.00 fps [ETA  0:00:01] [KPass 1/2 frame  122/121    25168B 1172862 us 104.02 fps [ETA  0:00:01] [KPass 1/2 frame  123/122    25376B 1182305 us 104.03 fps [ETA  0:00:01] [KPass 1/2 frame  124/123    25584B 1191640 us 104.06 fps [ETA  0:00:01] [KPass 1/2 frame  125/124    25792B 1200870 us 104.09 fps [ETA  0:00:01] [KPass 1/2 frame  126/125    26000B 1210292 us 104.11 fps [ETA  0:00:01] [KPass 1/2 frame  127/126    26208B 1220419 us 104.06 fps [ETA  0:00:01] [KPass 1/2 frame  128/127    26416B 1229793 us 104.08 fps [ETA  0:00:01] [KPass 1/2 frame  129/128    26624B 1239135 us 104.10 fps [ETA  0:00:01] [KPass 1/2 frame  130/129    26832B 1248529 us 104.12 fps [ETA  0:00:01] [KPass 1/2 frame  131/130    27040B 1257860 us 104.15 fps [ETA  0:00:01] [KPass 1/2 frame  132/131    27248B 1267205 us 104.17 fps [ETA  0:00:01] [KPass 1/2 frame  133/132    27456B 1276422 us 104.20 fps [ETA  0:00:01] [KPass 1/2 frame  134/133    27664B 1285844 us 104.21 fps [ETA  0:00:01] [KPass 1/2 frame  135/134    27872B 1295263 us 104.23 fps [ETA  0:00:01] [KPass 1/2 frame  136/135    28080B 1304686 us 104.24 fps [ETA  0:00:01] [KPass 1/2 frame  137/136    28288B 1314076 us 104.26 fps [ETA  0:00:01] [KPass 1/2 frame  138/137    28496B 1323656 us 104.26 fps [ETA  0:00:01] [KPass 1/2 frame  139/138    28704B 1333167 us 104.26 fps [ETA  0:00:01] [KPass 1/2 frame  140/139    28912B 1342672 us 104.27 fps [ETA  0:00:01] [KPass 1/2 frame  141/140    29120B 1352135 us 104.28 fps [ETA  0:00:01] [KPass 1/2 frame  142/141    29328B 1361637 us 104.29 fps [ETA  0:00:01] [KPass 1/2 frame  143/142    29536B 1371034 us 104.30 fps [ETA  0:00:01] [KPass 1/2 frame  144/143    29744B 1380723 us 104.29 fps [ETA  0:00:01] [KPass 1/2 frame  145/144    29952B 1390209 us 104.30 fps [ETA  0:00:01] [KPass 1/2 frame  146/145    30160B 1399717 us 104.31 fps [ETA  0:00:01] [KPass 1/2 frame  147/146    30368B 1409324 us 104.31 fps [ETA  0:00:01] [KPass 1/2 frame  148/147    30576B 1418964 us 104.30 fps [ETA  0:00:00] [KPass 1/2 frame  149/148    30784B 1428503 us 104.30 fps [ETA  0:00:00] [KPass 1/2 frame  150/149    30992B 1438039 us 104.31 fps [ETA  0:00:00] [KPass 1/2 frame  151/150    31200B 1447696 us 104.30 fps [ETA  0:00:00] [KPass 1/2 frame  152/151    31408B 1457390 us 104.30 fps [ETA  0:00:00] [KPass 1/2 frame  153/152    31616B 1466988 us 104.30 fps [ETA  0:00:00] [KPass 1/2 frame  154/153    31824B 1476397 us 104.31 fps [ETA  0:00:00] [KPass 1/2 frame  155/154    32032B 1485927 us 104.31 fps [ETA  0:00:00] [KPass 1/2 frame  156/155    32240B 1495257 us 104.33 fps [ETA  0:00:00] [KPass 1/2 frame  157/156    32448B 1504812 us 104.33 fps [ETA  0:00:00] [KPass 1/2 frame  158/157    32656B 1514246 us 104.34 fps [ETA  0:00:00] [KPass 1/2 frame  159/158    32864B 1523670 us 104.35 fps [ETA  0:00:00] [KPass 1/2 frame  160/159    33072B 1533035 us 104.37 fps [ETA  0:00:00] [KPass 1/2 frame  161/160    33280B 1542598 us 104.37 fps [ETA  0:00:00] [KPass 1/2 frame  162/161    33488B 1551961 us 104.38 fps [ETA  0:00:00] [KPass 1/2 frame  163/162    33696B 1561290 us 104.40 fps [ETA  0:00:00] [KPass 1/2 frame  164/163    33904B 1570731 us 104.41 fps [ETA  0:00:00] [KPass 1/2 frame  165/164    34112B 1580241 us 104.41 fps [ETA  0:00:00] [KPass 1/2 frame  166/165    34320B 1589643 us 104.43 fps [ETA  0:00:00] [KPass 1/2 frame  167/166    34528B 1598838 us 104.45 fps [ETA  0:00:00] [KPass 1/2 frame  168/167    34736B 1609242 us 104.40 fps [ETA  0:00:00] [KPass 1/2 frame  169/168    34944B 1618459 us 104.42 fps [ETA  0:00:00] [KPass 1/2 frame  170/169    35152B 1627662 us 104.44 fps [ETA  0:00:00] [KPass 1/2 frame  171/170    35360B 1636948 us 104.46 fps [ETA  0:00:00] [KPass 1/2 frame  172/171    35568B 1646214 us 104.48 fps [ETA  0:00:00] [KPass 1/2 frame  173/172    35776B 1655624 us 104.49 fps [ETA  0:00:00] [KPass 1/2 frame  174/173    35984B 1665057 us 104.50 fps [ETA  0:00:00] [KPass 1/2 frame  175/174    36192B 1674300 us 104.52 fps [ETA  0:00:00] [KPass 1/2 frame  176/175    36400B 1683692 us 104.53 fps [ETA  0:00:00] [KPass 1/2 frame  177/176    36608B 1693813 us 104.50 fps [ETA  0:00:00] [KPass 1/2 frame  178/177    36816B 1703078 us 104.52 fps [ETA  0:00:00] [KPass 1/2 frame  179/178    37024B 1712376 us 104.53 fps [ETA  0:00:00] [KPass 1/2 frame  180/179    37232B 1721712 us 104.55 fps [ETA  0:00:00] [KPass 1/2 frame  181/180    37440B 1731124 us 104.56 fps [ETA  0:00:00] [KPass 1/2 frame  182/181    37648B 1740490 us 104.57 fps [ETA  0:00:00] [KPass 1/2 frame  183/182    37856B 1749966 us 104.57 fps [ETA  0:00:00] [KPass 1/2 frame  184/183    38064B 1759366 us 104.58 fps [ETA  0:00:00] [KPass 1/2 frame  185/184    38272B 1768775 us 104.59 fps [ETA  0:00:00] [KPass 1/2 frame  186/185    38480B 1778350 us 104.59 fps [ETA  0:00:00] [KPass 1/2 frame  187/186    38688B 1787734 us 104.60 fps [ETA  0:00:00] [KPass 1/2 frame  188/187    38896B 1797165 us 104.61 fps [ETA  0:00:00] [KPass 1/2 frame  189/188    39104B 1806573 us 104.62 fps [ETA  0:00:00] [KPass 1/2 frame  190/189    39312B 1816258 us 104.61 fps [ETA  0:00:00] [KPass 1/2 frame  191/190    39520B 1825830 us 104.61 fps [ETA  0:00:00] [KPass 1/2 frame  192/191    39728B 1835380 us 104.61 fps [ETA  0:00:00] [KPass 1/2 frame  193/192    39936B 1844848 us 104.62 fps [ETA  0:00:00] [KPass 1/2 frame  194/193    40144B 1854444 us 104.61 fps [ETA  0:00:00] [KPass 1/2 frame  195/194    40352B 1864644 us 104.58 fps [ETA  0:00:00] [KPass 1/2 frame  196/195    40560B 1874026 us 104.59 fps [ETA  0:00:00] [KPass 1/2 frame  197/196    40768B 1883659 us 104.58 fps [ETA  0:00:00] [KPass 1/2 frame  198/197    40976B 1895038 us 104.48 fps [ETA  0:00:00] [KPass 1/2 frame  199/198    41184B 1904493 us 104.49 fps [ETA  0:00:00] [KPass 1/2 frame  200/199    41392B 1913768 us 104.51 fps [ETA  0:00:00] [KPass 1/2 frame  201/200    41600B 1923257 us 104.51 fps [ETA  0:00:00] [KPass 1/2 frame  202/201    41808B 1933068 us 104.50 fps [ETA  0:00:00] [KPass 1/2 frame  203/202    42016B 1942517 us 104.50 fps [ETA  0:00:00] [KPass 1/2 frame  204/203    42224B 1951901 us 104.51 fps [ETA  0:00:00] [KPass 1/2 frame  205/204    42432B 1961207 us 104.53 fps [ETA  0:00:00] [KPass 1/2 frame  206/205    42640B 1970406 us 104.55 fps [ETA  0:00:00] [KPass 1/2 frame  207/206    42848B 1979704 us 104.56 fps [ETA  0:00:00] [KPass 1/2 frame  208/207    43056B 1988937 us 104.58 fps [ETA  0:00:00] [KPass 1/2 frame  209/208    43264B 1998168 us 104.60 fps [ETA  0:00:00] [KPass 1/2 frame  210/209    43472B 2007505 us 104.61 fps [ETA  0:00:00] [KPass 1/2 frame  211/210    43680B 2016867 us 104.62 fps [ETA  0:00:00] [KPass 1/2 frame  212/211    43888B 2026015 us 104.64 fps [ETA  0:00:00] [KPass 1/2 frame  213/212    44096B 2035342 us 104.65 fps [ETA  0:00:00] [KPass 1/2 frame  214/213    44304B 2044787 us 104.66 fps [ETA  0:00:00] [KPass 1/2 frame  215/214    44512B 2054237 us 104.66 fps [ETA  0:00:00] [KPass 1/2 frame  216/215    44720B 2063594 us 104.67 fps [ETA  0:00:00] [KPass 1/2 frame  217/216    44928B 2073102 us 104.67 fps [ETA  0:00:00] [KPass 1/2 frame  218/217    45136B 2082465 us 104.68 fps [ETA  0:00:00] [KPass 1/2 frame  219/218    45344B 2092020 us 104.68 fps [ETA  0:00:00] [KPass 1/2 frame  220/219    45552B 2101555 us 104.68 fps [ETA  0:00:00] [KPass 1/2 frame  221/220    45760B 2111067 us 104.69 fps [ETA  0:00:00] [KPass 1/2 frame  222/221    45968B 2120608 us 104.69 fps [ETA  0:00:00] [KPass 1/2 frame  223/222    46176B 2130180 us 104.69 fps [ETA  0:00:00] [KPass 1/2 frame  224/223    46384B 2139618 us 104.69 fps [ETA  0:00:00] [KPass 1/2 frame  225/224    46592B 2149121 us 104.69 fps [ETA  0:00:00] [KPass 1/2 frame  226/225    46800B 2158814 us 104.69 fps [ETA  0:00:00] [KPass 1/2 frame  227/226    47008B 2168422 us 104.68 fps [ETA  0:00:00] [KPass 1/2 frame  228/227    47216B 2177976 us 104.68 fps [ETA  0:00:00] [KPass 1/2 frame  229/228    47424B 2187426 us 104.69 fps [ETA  0:00:00] [KPass 1/2 frame  230/229    47632B 2196866 us 104.69 fps [ETA  0:00:00] [KPass 1/2 frame  231/230    47840B 2206297 us 104.70 fps [ETA  0:00:00] [KPass 1/2 frame  232/231    48048B 2215703 us 104.71 fps [ETA  0:00:00] [KPass 1/2 frame  233/232    48256B 2225082 us 104.72 fps [ETA  0:00:00] [KPass 1/2 frame  234/233    48464B 2234504 us 104.72 fps [ETA  0:00:00] [KPass 1/2 frame  235/234    48672B 2243898 us 104.73 fps [ETA  0:00:00] [KPass 1/2 frame  236/235    48880B 2253338 us 104.73 fps [ETA  0:00:00] [KPass 1/2 frame  237/236    49088B 2262579 us 104.75 fps [ETA  0:00:00] [KPass 1/2 frame  238/237    49296B 2271845 us 104.76 fps [ETA  0:00:00] [KPass 1/2 frame  239/238    49504B 2281090 us 104.77 fps [ETA  0:00:00] [KPass 1/2 frame  240/239    49712B 2290437 us 104.78 fps [ETA  0:00:00] [KPass 1/2 frame  241/240    49920B 2299683 us 104.80 fps [ETA  0:00:00] [KPass 1/2 frame  242/241    50128B 2309028 us 104.81 fps [ETA  0:00:00] [KPass 1/2 frame  243/242    50336B 2318367 us 104.82 fps [ETA  0:00:00] [KPass 1/2 frame  244/243    50544B 2327630 us 104.83 fps [ETA  0:00:00] [KPass 1/2 frame  245/244    50752B 2336905 us 104.84 fps [ETA  0:00:00] [KPass 1/2 frame  246/245    50960B 2346196 us 104.85 fps [ETA  0:00:00] [KPass 1/2 frame  247/246    51168B 2355420 us 104.86 fps [ETA  0:00:00] [KPass 1/2 frame  248/247    51376B 2364801 us 104.87 fps [ETA  0:00:00] [KPass 1/2 frame  249/248    51584B 2374181 us 104.88 fps [ETA  0:00:00] [KPass 1/2 frame  250/249    51792B 2383519 us 104.89 fps [ETA  0:00:00] [KPass 1/2 frame  250/250    52000B 2392755 us 104.48 fps [ETA  0:00:00] [KPass 1/2 frame  250/251    52208B    1670b/f   41766b/s 2387062 us (104.73 fps)[K
Pass 2/2 frame    1/0          0B 2392761 us 25.08 fpm [ETA  unknown] [KPass 2/2 frame    2/0          0B 2411263 us 49.77 fpm [ETA  unknown] [KPass 2/2 frame    3/0          0B 2411397 us 1.24 fps [ETA  unknown] [KPass 2/2 frame    4/0          0B 2411544 us 1.66 fps [ETA  unknown] [KPass 2/2 frame    5/0          0B 2411679 us 2.07 fps [ETA  unknown] [KPass 2/2 frame    6/0          0B 2411814 us 2.49 fps [ETA  unknown] [KPass 2/2 frame    7/0          0B 2411947 us 2.90 fps [ETA  unknown] [KPass 2/2 frame    8/0          0B 2412082 us 3.32 fps [ETA  unknown] [KPass 2/2 frame    9/0          0B 2412220 us 3.73 fps [ETA  unknown] [KPass 2/2 frame   10/0          0B 2412345 us 4.15 fps [ETA  unknown] [KPass 2/2 frame   11/0          0B 2412476 us 4.56 fps [ETA  unknown] [KPass 2/2 frame   12/0          0B 2412608 us 4.97 fps [ETA  unknown] [KPass 2/2 frame   13/0          0B 2412740 us 5.39 fps [ETA  unknown] [KPass 2/2 frame   14/0          0B 2412867 us 5.80 fps [ETA  unknown] [KPass 2/2 frame   15/0          0B 2412991 us 6.22 fps [ETA  unknown] [KPass 2/2 frame   16/0          0B 2413125 us 6.63 fps [ETA  unknown] [KPass 2/2 frame   17/0          0B 2413255 us 7.04 fps [ETA  unknown] [KPass 2/2 frame   18/0          0B 2413379 us 7.46 fps [ETA  unknown] [KPass 2/2 frame   19/0          0B 2413502 us 7.87 fps [ETA  unknown] [KPass 2/2 frame   20/0          0B 2413627 us 8.29 fps [ETA  unknown] [KPass 2/2 frame   21/0          0B 2413755 us 8.70 fps [ETA  unknown] [KPass 2/2 frame   22/0          0B 2413876 us 9.11 fps [ETA  unknown] [KPass 2/2 frame   23/0          0B 2413992 us 9.53 fps [ETA  unknown] [KPass 2/2 frame   24/0          0B 2414118 us 9.94 fps [ETA  unknown] [KPass 2/2 frame   25/0          0B 2414237 us 10.36 fps [ETA  unknown]    4533F[KPass 2/2 frame   26/1       4533B 8301622 us 3.13 fps [ETA  0:34:27]    1351F[KPass 2/2 frame   27/2       5884B 9263452 us 2.91 fps [ETA  0:31:13]     190F[KPass 2/2 frame   28/3       6074B   10026 ms 2.79 fps [ETA  0:26:51]     173F[KPass 2/2 frame   29/4       6247B   10729 ms 2.70 fps [ETA  0:22:41]     156F[KPass 2/2 frame   30/5       6403B   11479 ms 2.61 fps [ETA  0:19:12]     138F[KPass 2/2 frame   31/6       6541B   12164 ms 2.55 fps [ETA  0:16:25]     134F[KPass 2/2 frame   32/7       6675B   12815 ms 2.50 fps [ETA  0:14:12]     154F[KPass 2/2 frame   33/8       6829B   13506 ms 2.44 fps [ETA  0:12:28]     142F[KPass 2/2 frame   34/9       6971B   14180 ms 2.40 fps [ETA  0:11:05]     139F[KPass 2/2 frame   35/10      7110B   14876 ms 2.35 fps [ETA  0:09:58]     132F[KPass 2/2 frame   36/11      7242B   15501 ms 2.32 fps [ETA  0:09:03]      67F[KPass 2/2 frame   37/12      7309B   16000 ms 2.31 fps [ETA  0:08:17]      19F[KPass 2/2 frame   38/13      7328B   21789 ms 1.74 fps [ETA  0:08:00]    3827F[KPass 2/2 frame   39/14     11155B   22472 ms 1.74 fps [ETA  0:07:43]     165F[KPass 2/2 frame   40/15     11320B   23132 ms 1.73 fps [ETA  0:07:26]     178F[KPass 2/2 frame   41/16     11498B   23807 ms 1.72 fps [ETA  0:07:09]     163F[KPass 2/2 frame   42/17     11661B   24468 ms 1.72 fps [ETA  0:06:53]     150F[KPass 2/2 frame   43/18     11811B   25130 ms 1.71 fps [ETA  0:06:38]     129F[KPass 2/2 frame   44/19     11940B   25743 ms 1.71 fps [ETA  0:06:23]     143F[KPass 2/2 frame   45/20     12083B   26367 ms 1.71 fps [ETA  0:06:09]     149F[KPass 2/2 frame   46/21     12232B   27007 ms 1.70 fps [ETA  0:05:57]     161F[KPass 2/2 frame   47/22     12393B   27644 ms 1.70 fps [ETA  0:05:45]     149F[KPass 2/2 frame   48/23     12542B   28262 ms 1.70 fps [ETA  0:05:34]     101F[KPass 2/2 frame   49/24     12643B   28734 ms 1.71 fps [ETA  0:05:23]      23F[KPass 2/2 frame   50/25     12666B   33805 ms 1.48 fps [ETA  0:05:19]    3083F[KPass 2/2 frame   51/26     15749B   34603 ms 1.47 fps [ETA  0:05:15]     195F[KPass 2/2 frame   52/27     15944B   35343 ms 1.47 fps [ETA  0:05:11]     185F[KPass 2/2 frame   53/28     16129B   36066 ms 1.47 fps [ETA  0:05:06]     187F[KPass 2/2 frame   54/29     16316B   36778 ms 1.47 fps [ETA  0:05:01]     201F[KPass 2/2 frame   55/30     16517B   37496 ms 1.47 fps [ETA  0:04:57]     174F[KPass 2/2 frame   56/31     16691B   38140 ms 1.47 fps [ETA  0:04:52]     187F[KPass 2/2 frame   57/32     16878B   38826 ms 1.47 fps [ETA  0:04:47]     151F[KPass 2/2 frame   58/33     17029B   39492 ms 1.47 fps [ETA  0:04:42]     178F[KPass 2/2 frame   59/34     17207B   40185 ms 1.47 fps [ETA  0:04:37]     186F[KPass 2/2 frame   60/35     17393B   40874 ms 1.47 fps [ETA  0:04:32]     127F[KPass 2/2 frame   61/36     17520B   41371 ms 1.47 fps [ETA  0:04:28]      22F[KPass 2/2 frame   62/37     17542B   47003 ms 1.32 fps [ETA  0:04:27]    3106F[KPass 2/2 frame   63/38     20648B   47771 ms 1.32 fps [ETA  0:04:26]     240F[KPass 2/2 frame   64/39     20888B   48485 ms 1.32 fps [ETA  0:04:24]     228F[KPass 2/2 frame   65/40     21116B   49207 ms 1.32 fps [ETA  0:04:22]     248F[KPass 2/2 frame   66/41     21364B   49911 ms 1.32 fps [ETA  0:04:20]     298F[KPass 2/2 frame   67/42     21662B   50619 ms 1.32 fps [ETA  0:04:18]     240F[KPass 2/2 frame   68/43     21902B   51268 ms 1.33 fps [ETA  0:04:15]     276F[KPass 2/2 frame   69/44     22178B   51977 ms 1.33 fps [ETA  0:04:12]     265F[KPass 2/2 frame   70/45     22443B   52672 ms 1.33 fps [ETA  0:04:10]     238F[KPass 2/2 frame   71/46     22681B   53393 ms 1.33 fps [ETA  0:04:07]     295F[KPass 2/2 frame   72/47     22976B   54108 ms 1.33 fps [ETA  0:04:04]     222F[KPass 2/2 frame   73/48     23198B   54674 ms 1.34 fps [ETA  0:04:01]      23F[KPass 2/2 frame   74/49     23221B   59796 ms 1.24 fps [ETA  0:04:00]    3169F[KPass 2/2 frame   75/50     26390B   60517 ms 1.24 fps [ETA  0:04:00]     357F[KPass 2/2 frame   76/51     26747B   61291 ms 1.24 fps [ETA  0:03:58]     309F[KPass 2/2 frame   77/52     27056B   62063 ms 1.24 fps [ETA  0:03:57]     389F[KPass 2/2 frame   78/53     27445B   62796 ms 1.24 fps [ETA  0:03:55]     392F[KPass 2/2 frame   79/54     27837B   63533 ms 1.24 fps [ETA  0:03:54]     324F[KPass 2/2 frame   80/55     28161B   64252 ms 1.25 fps [ETA  0:03:52]     415F[KPass 2/2 frame   81/56     28576B   64995 ms 1.25 fps [ETA  0:03:50]     371F[KPass 2/2 frame   82/57     28947B   65750 ms 1.25 fps [ETA  0:03:48]     313F[KPass 2/2 frame   83/58     29260B   66571 ms 1.25 fps [ETA  0:03:46]     310F[KPass 2/2 frame   84/59     29570B   67327 ms 1.25 fps [ETA  0:03:44]     315F[KPass 2/2 frame   85/60     29885B   67908 ms 1.25 fps [ETA  0:03:42]      19F[KPass 2/2 frame   86/61     29904B   72815 ms 1.18 fps [ETA  0:03:41]    3261F[KPass 2/2 frame   87/62     33165B   73599 ms 1.18 fps [ETA  0:03:40]     520F[KPass 2/2 frame   88/63     33685B   74363 ms 1.18 fps [ETA  0:03:39]     410F[KPass 2/2 frame   89/64     34095B   75172 ms 1.18 fps [ETA  0:03:38]     514F[KPass 2/2 frame   90/65     34609B   75939 ms 1.19 fps [ETA  0:03:37]     566F[KPass 2/2 frame   91/66     35175B   76695 ms 1.19 fps [ETA  0:03:35]     459F[KPass 2/2 frame   92/67     35634B   77418 ms 1.19 fps [ETA  0:03:34]     516F[KPass 2/2 frame   93/68     36150B   78168 ms 1.19 fps [ETA  0:03:32]     522F[KPass 2/2 frame   94/69     36672B   78888 ms 1.19 fps [ETA  0:03:30]     476F[KPass 2/2 frame   95/70     37148B   79642 ms 1.19 fps [ETA  0:03:28]     407F[KPass 2/2 frame   96/71     37555B   80371 ms 1.19 fps [ETA  0:03:27]     479F[KPass 2/2 frame   97/72     38034B   81000 ms 1.20 fps [ETA  0:03:25]      20F[KPass 2/2 frame   98/73     38054B   85945 ms 1.14 fps [ETA  0:03:24]    3444F[KPass 2/2 frame   99/74     41498B   86767 ms 1.14 fps [ETA  0:03:23]     814F[KPass 2/2 frame  100/75     42312B   87552 ms 1.14 fps [ETA  0:03:22]     726F[KPass 2/2 frame  101/76     43038B   88363 ms 1.14 fps [ETA  0:03:21]     709F[KPass 2/2 frame  102/77     43747B   89103 ms 1.14 fps [ETA  0:03:20]     716F[KPass 2/2 frame  103/78     44463B   89843 ms 1.15 fps [ETA  0:03:19]     670F[KPass 2/2 frame  104/79     45133B   90569 ms 1.15 fps [ETA  0:03:17]     683F[KPass 2/2 frame  105/80     45816B   91292 ms 1.15 fps [ETA  0:03:16]     670F[KPass 2/2 frame  106/81     46486B   92024 ms 1.15 fps [ETA  0:03:14]     612F[KPass 2/2 frame  107/82     47098B   92793 ms 1.15 fps [ETA  0:03:13]     633F[KPass 2/2 frame  108/83     47731B   93572 ms 1.15 fps [ETA  0:03:11]     672F[KPass 2/2 frame  109/84     48403B   94263 ms 1.16 fps [ETA  0:03:09]      23F[KPass 2/2 frame  110/85     48426B   99160 ms 1.11 fps [ETA  0:03:09]    3352F[KPass 2/2 frame  111/86     51778B   99921 ms 1.11 fps [ETA  0:03:08]     800F[KPass 2/2 frame  112/87     52578B  100724 ms 1.11 fps [ETA  0:03:07]     709F[KPass 2/2 frame  113/88     53287B  101486 ms 1.11 fps [ETA  0:03:06]     701F[KPass 2/2 frame  114/89     53988B  102248 ms 1.11 fps [ETA  0:03:05]     677F[KPass 2/2 frame  115/90     54665B  102995 ms 1.12 fps [ETA  0:03:03]     691F[KPass 2/2 frame  116/91     55356B  103720 ms 1.12 fps [ETA  0:03:02]     684F[KPass 2/2 frame  117/92     56040B  104503 ms 1.12 fps [ETA  0:03:01]     701F[KPass 2/2 frame  118/93     56741B  105236 ms 1.12 fps [ETA  0:02:59]     584F[KPass 2/2 frame  119/94     57325B  106020 ms 1.12 fps [ETA  0:02:58]     662F[KPass 2/2 frame  120/95     57987B  106801 ms 1.12 fps [ETA  0:02:56]     742F[KPass 2/2 frame  121/96     58729B  107562 ms 1.12 fps [ETA  0:02:55]      19F[KPass 2/2 frame  122/97     58748B  112536 ms 1.08 fps [ETA  0:02:54]    3272F[KPass 2/2 frame  123/98     62020B  113349 ms 1.09 fps [ETA  0:02:53]     753F[KPass 2/2 frame  124/99     62773B  114137 ms 1.09 fps [ETA  0:02:52]     627F[KPass 2/2 frame  125/100    63400B  114933 ms 1.09 fps [ETA  0:02:51]     684F[KPass 2/2 frame  126/101    64084B  115684 ms 1.09 fps [ETA  0:02:50]     648F[KPass 2/2 frame  127/102    64732B  116402 ms 1.09 fps [ETA  0:02:49]     696F[KPass 2/2 frame  128/103    65428B  117149 ms 1.09 fps [ETA  0:02:48]     689F[KPass 2/2 frame  129/104    66117B  117887 ms 1.09 fps [ETA  0:02:46]     651F[KPass 2/2 frame  130/105    66768B  118622 ms 1.10 fps [ETA  0:02:45]     579F[KPass 2/2 frame  131/106    67347B  119381 ms 1.10 fps [ETA  0:02:43]     739F[KPass 2/2 frame  132/107    68086B  120146 ms 1.10 fps [ETA  0:02:42]     678F[KPass 2/2 frame  133/108    68764B  120761 ms 1.10 fps [ETA  0:02:41]      23F[KPass 2/2 frame  134/109    68787B  125631 ms 1.07 fps [ETA  0:02:40]    3362F[KPass 2/2 frame  135/110    72149B  126445 ms 1.07 fps [ETA  0:02:39]     714F[KPass 2/2 frame  136/111    72863B  127238 ms 1.07 fps [ETA  0:02:38]     637F[KPass 2/2 frame  137/112    73500B  128048 ms 1.07 fps [ETA  0:02:37]     673F[KPass 2/2 frame  138/113    74173B  128803 ms 1.07 fps [ETA  0:02:36]     670F[KPass 2/2 frame  139/114    74843B  129569 ms 1.07 fps [ETA  0:02:34]     698F[KPass 2/2 frame  140/115    75541B  130316 ms 1.07 fps [ETA  0:02:33]     711F[KPass 2/2 frame  141/116    76252B  131072 ms 1.08 fps [ETA  0:02:32]     650F[KPass 2/2 frame  142/117    76902B  131828 ms 1.08 fps [ETA  0:02:31]     731F[KPass 2/2 frame  143/118    77633B  132638 ms 1.08 fps [ETA  0:02:29]     782F[KPass 2/2 frame  144/119    78415B  133381 ms 1.08 fps [ETA  0:02:28]     648F[KPass 2/2 frame  145/120    79063B  134074 ms 1.08 fps [ETA  0:02:27]      29F[KPass 2/2 frame  146/121    79092B  136783 ms 1.07 fps [ETA  0:02:25]    3266F[KPass 2/2 frame  147/122    82358B  138151 ms 1.06 fps [ETA  0:02:24]    1550F[KPass 2/2 frame  148/123    83908B  138681 ms 1.07 fps [ETA  0:02:23]    1301F[KPass 2/2 frame  149/124    85209B  139121 ms 1.07 fps [ETA  0:02:22]    1329F[KPass 2/2 frame  150/125    86538B  139573 ms 1.07 fps [ETA  0:02:20]    1446F[KPass 2/2 frame  151/126    87984B  140064 ms 1.08 fps [ETA  0:02:19]    1223F[KPass 2/2 frame  152/127    89207B  140488 ms 1.08 fps [ETA  0:02:18]      23F[KPass 2/2 frame  153/128    89230B  140711 ms 1.09 fps [ETA  0:02:16]    5216F[KPass 2/2 frame  154/129    94446B  146694 ms 1.05 fps [ETA  0:02:15]    3778F[KPass 2/2 frame  155/130    98224B  147238 ms 1.05 fps [ETA  0:02:14]     744F[KPass 2/2 frame  156/131    98968B  147976 ms 1.05 fps [ETA  0:02:13]     705F[KPass 2/2 frame  157/132    99673B  148751 ms 1.06 fps [ETA  0:02:12]     747F[KPass 2/2 frame  158/133   100420B  149522 ms 1.06 fps [ETA  0:02:11]     791F[KPass 2/2 frame  159/134   101211B  150246 ms 1.06 fps [ETA  0:02:10]     671F[KPass 2/2 frame  160/135   101882B  150947 ms 1.06 fps [ETA  0:02:09]     742F[KPass 2/2 frame  161/136   102624B  151664 ms 1.06 fps [ETA  0:02:07]     703F[KPass 2/2 frame  162/137   103327B  152392 ms 1.06 fps [ETA  0:02:06]     563F[KPass 2/2 frame  163/138   103890B  153140 ms 1.06 fps [ETA  0:02:05]     772F[KPass 2/2 frame  164/139   104662B  153844 ms 1.07 fps [ETA  0:02:04]     676F[KPass 2/2 frame  165/140   105338B  154455 ms 1.07 fps [ETA  0:02:02]      26F[KPass 2/2 frame  166/141   105364B  160223 ms 1.04 fps [ETA  0:02:01]    3284F[KPass 2/2 frame  167/142   108648B  161057 ms 1.04 fps [ETA  0:02:01]     742F[KPass 2/2 frame  168/143   109390B  161882 ms 1.04 fps [ETA  0:02:00]     666F[KPass 2/2 frame  169/144   110056B  162649 ms 1.04 fps [ETA  0:01:59]     821F[KPass 2/2 frame  170/145   110877B  163423 ms 1.04 fps [ETA  0:01:57]     776F[KPass 2/2 frame  171/146   111653B  164163 ms 1.04 fps [ETA  0:01:56]     812F[KPass 2/2 frame  172/147   112465B  164930 ms 1.04 fps [ETA  0:01:55]     748F[KPass 2/2 frame  173/148   113213B  165672 ms 1.04 fps [ETA  0:01:54]     783F[KPass 2/2 frame  174/149   113996B  166370 ms 1.05 fps [ETA  0:01:53]     637F[KPass 2/2 frame  175/150   114633B  167125 ms 1.05 fps [ETA  0:01:52]     846F[KPass 2/2 frame  176/151   115479B  167885 ms 1.05 fps [ETA  0:01:50]     710F[KPass 2/2 frame  177/152   116189B  168542 ms 1.05 fps [ETA  0:01:49]      34F[KPass 2/2 frame  178/153   116223B  174160 ms 1.02 fps [ETA  0:01:48]    3389F[KPass 2/2 frame  179/154   119612B  174957 ms 1.02 fps [ETA  0:01:47]     844F[KPass 2/2 frame  180/155   120456B  175715 ms 1.02 fps [ETA  0:01:46]     638F[KPass 2/2 frame  181/156   121094B  176498 ms 1.03 fps [ETA  0:01:45]     756F[KPass 2/2 frame  182/157   121850B  177203 ms 1.03 fps [ETA  0:01:44]     752F[KPass 2/2 frame  183/158   122602B  177951 ms 1.03 fps [ETA  0:01:43]     702F[KPass 2/2 frame  184/159   123304B  178674 ms 1.03 fps [ETA  0:01:42]     778F[KPass 2/2 frame  185/160   124082B  179450 ms 1.03 fps [ETA  0:01:41]     669F[KPass 2/2 frame  186/161   124751B  180196 ms 1.03 fps [ETA  0:01:40]     607F[KPass 2/2 frame  187/162   125358B  180959 ms 1.03 fps [ETA  0:01:38]     668F[KPass 2/2 frame  188/163   126026B  181700 ms 1.03 fps [ETA  0:01:37]     722F[KPass 2/2 frame  189/164   126748B  182313 ms 1.04 fps [ETA  0:01:36]      30F[KPass 2/2 frame  190/165   126778B  187252 ms 1.01 fps [ETA  0:01:35]    3948F[KPass 2/2 frame  191/166   130726B  188533 ms 1.01 fps [ETA  0:01:34]     742F[KPass 2/2 frame  192/167   131468B  189332 ms 1.01 fps [ETA  0:01:33]     568F[KPass 2/2 frame  193/168   132036B  190145 ms 1.02 fps [ETA  0:01:32]     728F[KPass 2/2 frame  194/169   132764B  190915 ms 1.02 fps [ETA  0:01:31]     776F[KPass 2/2 frame  195/170   133540B  191687 ms 1.02 fps [ETA  0:01:30]     694F[KPass 2/2 frame  196/171   134234B  192452 ms 1.02 fps [ETA  0:01:29]     693F[KPass 2/2 frame  197/172   134927B  193193 ms 1.02 fps [ETA  0:01:27]     691F[KPass 2/2 frame  198/173   135618B  193895 ms 1.02 fps [ETA  0:01:26]     651F[KPass 2/2 frame  199/174   136269B  194645 ms 1.02 fps [ETA  0:01:25]     600F[KPass 2/2 frame  200/175   136869B  195385 ms 1.02 fps [ETA  0:01:24]     727F[KPass 2/2 frame  201/176   137596B  196058 ms 1.03 fps [ETA  0:01:23]      47F[KPass 2/2 frame  202/177   137643B  200910 ms 1.01 fps [ETA  0:01:22]    3450F[KPass 2/2 frame  203/178   141093B  201632 ms 1.01 fps [ETA  0:01:21]     796F[KPass 2/2 frame  204/179   141889B  202360 ms 1.01 fps [ETA  0:01:19]     706F[KPass 2/2 frame  205/180   142595B  203084 ms 1.01 fps [ETA  0:01:18]     713F[KPass 2/2 frame  206/181   143308B  203798 ms 1.01 fps [ETA  0:01:17]     765F[KPass 2/2 frame  207/182   144073B  204505 ms 1.01 fps [ETA  0:01:16]     672F[KPass 2/2 frame  208/183   144745B  205218 ms 1.01 fps [ETA  0:01:15]     635F[KPass 2/2 frame  209/184   145380B  205966 ms 1.01 fps [ETA  0:01:14]     675F[KPass 2/2 frame  210/185   146055B  206676 ms 1.02 fps [ETA  0:01:13]     609F[KPass 2/2 frame  211/186   146664B  207412 ms 1.02 fps [ETA  0:01:11]     641F[KPass 2/2 frame  212/187   147305B  208142 ms 1.02 fps [ETA  0:01:10]     767F[KPass 2/2 frame  213/188   148072B  208816 ms 1.02 fps [ETA  0:01:09]      55F[KPass 2/2 frame  214/189   148127B  214757 ms 59.79 fpm [ETA  0:01:08]    4339F[KPass 2/2 frame  215/190   152466B  215960 ms 59.73 fpm [ETA  0:01:07]     806F[KPass 2/2 frame  216/191   153272B  216732 ms 59.80 fpm [ETA  0:01:06]     767F[KPass 2/2 frame  217/192   154039B  217532 ms 59.85 fpm [ETA  0:01:05]     767F[KPass 2/2 frame  218/193   154806B  218345 ms 59.91 fpm [ETA  0:01:04]     768F[KPass 2/2 frame  219/194   155574B  219137 ms 59.96 fpm [ETA  0:01:03]     745F[KPass 2/2 frame  220/195   156319B  219927 ms 1.00 fps [ETA  0:01:01]     684F[KPass 2/2 frame  221/196   157003B  220725 ms 1.00 fps [ETA  0:01:00]     799F[KPass 2/2 frame  222/197   157802B  221535 ms 1.00 fps [ETA  0:00:59]     647F[KPass 2/2 frame  223/198   158449B  222344 ms 1.00 fps [ETA  0:00:58]     672F[KPass 2/2 frame  224/199   159121B  223095 ms 1.00 fps [ETA  0:00:57]     741F[KPass 2/2 frame  225/200   159862B  223794 ms 1.01 fps [ETA  0:00:56]      47F[KPass 2/2 frame  226/201   159909B  228753 ms 59.28 fpm [ETA  0:00:55]    3352F[KPass 2/2 frame  227/202   163261B  229525 ms 59.34 fpm [ETA  0:00:54]     816F[KPass 2/2 frame  228/203   164077B  230290 ms 59.40 fpm [ETA  0:00:53]     661F[KPass 2/2 frame  229/204   164738B  231066 ms 59.46 fpm [ETA  0:00:51]     766F[KPass 2/2 frame  230/205   165504B  231794 ms 59.54 fpm [ETA  0:00:50]     704F[KPass 2/2 frame  231/206   166208B  232547 ms 59.60 fpm [ETA  0:00:49]     755F[KPass 2/2 frame  232/207   166963B  233268 ms 59.67 fpm [ETA  0:00:48]     757F[KPass 2/2 frame  233/208   167720B  234023 ms 59.74 fpm [ETA  0:00:47]     740F[KPass 2/2 frame  234/209   168460B  234739 ms 59.81 fpm [ETA  0:00:46]     701F[KPass 2/2 frame  235/210   169161B  235527 ms 59.87 fpm [ETA  0:00:45]     709F[KPass 2/2 frame  236/211   169870B  236243 ms 59.94 fpm [ETA  0:00:43]     764F[KPass 2/2 frame  237/212   170634B  236877 ms 1.00 fps [ETA  0:00:42]      67F[KPass 2/2 frame  238/213   170701B  241840 ms 59.05 fpm [ETA  0:00:41]    3423F[KPass 2/2 frame  239/214   174124B  242568 ms 59.12 fpm [ETA  0:00:40]     736F[KPass 2/2 frame  240/215   174860B  243355 ms 59.17 fpm [ETA  0:00:39]     722F[KPass 2/2 frame  241/216   175582B  244158 ms 59.22 fpm [ETA  0:00:38]     793F[KPass 2/2 frame  242/217   176375B  244946 ms 59.28 fpm [ETA  0:00:37]     700F[KPass 2/2 frame  243/218   177075B  245745 ms 59.33 fpm [ETA  0:00:36]     621F[KPass 2/2 frame  244/219   177696B  246447 ms 59.40 fpm [ETA  0:00:34]     789F[KPass 2/2 frame  245/220   178485B  247181 ms 59.47 fpm [ETA  0:00:33]     762F[KPass 2/2 frame  246/221   179247B  247899 ms 59.54 fpm [ETA  0:00:32]     808F[KPass 2/2 frame  247/222   180055B  248691 ms 59.59 fpm [ETA  0:00:31]     730F[KPass 2/2 frame  248/223   180785B  249472 ms 59.65 fpm [ETA  0:00:30]     660F[KPass 2/2 frame  249/224   181445B  250082 ms 59.74 fpm [ETA  0:00:29]      67F[KPass 2/2 frame  250/225   181512B  255102 ms 58.80 fpm [ETA  0:00:28]    3246F[KPass 2/2 frame  250/226   184758B  255914 ms 58.61 fpm [ETA  0:00:27]     722F    662F    756F    784F    771F    736F    713F    647F    820F    688F     28F   3251F    672F    646F    606F    710F     62F   2824F    718F   1279F    601F   1673F    635F     19F[KPass 2/2 frame  250/250   205781B  276398 ms 54.27 fpm [ETA  0:00:27] [KPass 2/2 frame  250/250   205781B    6584b/f  164624b/s  274005 ms (0.91 fps)[K
ffprobe version 5.1.1-ok2 Copyright (c) 2007-2022 the FFmpeg developers
  built with gcc 9 (Ubuntu 9.3.0-ok4)
  configuration: --prefix=/usr --extra-version=ok2 --toolchain=hardened --libdir=/usr/lib/riscv64-linux-gnu --incdir=/usr/include/riscv64-linux-gnu --arch=riscv64 --enable-gpl --disable-stripping --enable-gnutls --enable-ladspa --enable-libaom --enable-libass --enable-libbluray --enable-libbs2b --enable-libcaca --enable-libcdio --enable-libcodec2 --enable-libdav1d --enable-libflite --enable-libfontconfig --enable-libfreetype --enable-libfribidi --enable-libglslang --enable-libgme --enable-libgsm --enable-libjack --enable-libmp3lame --enable-libmysofa --enable-libopenjpeg --enable-libopenmpt --enable-libopus --enable-libpulse --enable-librabbitmq --enable-librist --enable-librubberband --enable-libshine --enable-libsnappy --enable-libsoxr --enable-libspeex --enable-libsrt --enable-libssh --enable-libsvtav1 --enable-libtheora --enable-libtwolame --enable-libvidstab --enable-libvorbis --enable-libvpx --enable-libwebp --enable-libx265 --enable-libxml2 --enable-libxvid --enable-libzimg --enable-libzmq --enable-libzvbi --enable-lv2 --enable-omx --enable-openal --enable-opencl --enable-opengl --enable-sdl2 --disable-sndio --enable-pocketsphinx --enable-librsvg --enable-libdc1394 --enable-libdrm --enable-libiec61883 --enable-chromaprint --enable-frei0r --enable-libx264 --disable-libplacebo --enable-shared
  libavutil      57. 28.100 / 57. 28.100
  libavcodec     59. 37.100 / 59. 37.100
  libavformat    59. 27.100 / 59. 27.100
  libavdevice    59.  7.100 / 59.  7.100
  libavfilter     8. 44.100 /  8. 44.100
  libswscale      6.  7.100 /  6.  7.100
  libswresample   4.  7.100 /  4.  7.100
  libpostproc    56.  6.100 / 56.  6.100
Input #0, matroska,webm, from 'out.raw':
  Metadata:
    encoder         : libwebm-0.3.0.0
  Duration: 00:00:09.96, start: 0.000000, bitrate: 166 kb/s
  Stream #0:0(eng): Video: vp9 (Profile 0), yuv420p(tv), 320x240, SAR 1:1 DAR 4:3, 25 fps, 25 tbr, 1k tbn (default)
